<mxfile host="app.diagrams.net" agent="Mozilla/5.0 (X11; Ubuntu; Linux x86_64; rv:140.0) Gecko/20100101 Firefox/140.0" version="28.0.1">
  <diagram name="Page-1" id="kp85ORi3uPA0NuDMXLG0">
    <mxGraphModel dx="1426" dy="765" grid="1" gridSize="10" guides="1" tooltips="1" connect="1" arrows="1" fold="1" page="1" pageScale="1" pageWidth="850" pageHeight="1100" math="0" shadow="0">
      <root>
        <mxCell id="0" />
        <mxCell id="1" parent="0" />
        <mxCell id="qe9h3ov9cfnc1Nharkd9-6" style="edgeStyle=orthogonalEdgeStyle;rounded=0;orthogonalLoop=1;jettySize=auto;html=1;entryX=0.5;entryY=0;entryDx=0;entryDy=0;" edge="1" parent="1" source="qe9h3ov9cfnc1Nharkd9-1" target="qe9h3ov9cfnc1Nharkd9-2">
          <mxGeometry relative="1" as="geometry" />
        </mxCell>
        <mxCell id="qe9h3ov9cfnc1Nharkd9-1" value="&lt;span style=&quot;color: light-dark(rgb(28, 113, 216), rgb(237, 237, 237));&quot;&gt;START&lt;/span&gt;" style="rounded=1;whiteSpace=wrap;html=1;fillColor=#dae8fc;strokeColor=#6c8ebf;" vertex="1" parent="1">
          <mxGeometry x="300" y="40" width="120" height="40" as="geometry" />
        </mxCell>
        <mxCell id="qe9h3ov9cfnc1Nharkd9-7" style="edgeStyle=orthogonalEdgeStyle;rounded=0;orthogonalLoop=1;jettySize=auto;html=1;entryX=0.5;entryY=0;entryDx=0;entryDy=0;dashed=1;" edge="1" parent="1" source="qe9h3ov9cfnc1Nharkd9-2" target="qe9h3ov9cfnc1Nharkd9-19">
          <mxGeometry relative="1" as="geometry">
            <mxPoint x="360" y="200" as="targetPoint" />
          </mxGeometry>
        </mxCell>
        <mxCell id="qe9h3ov9cfnc1Nharkd9-20" style="edgeStyle=orthogonalEdgeStyle;rounded=0;orthogonalLoop=1;jettySize=auto;html=1;entryX=0.5;entryY=0;entryDx=0;entryDy=0;dashed=1;" edge="1" parent="1" source="qe9h3ov9cfnc1Nharkd9-2" target="qe9h3ov9cfnc1Nharkd9-10">
          <mxGeometry relative="1" as="geometry" />
        </mxCell>
        <mxCell id="qe9h3ov9cfnc1Nharkd9-2" value="&lt;span style=&quot;color: light-dark(rgb(192, 28, 40), rgb(237, 237, 237));&quot;&gt;Parse_pdf&lt;/span&gt;" style="rounded=1;whiteSpace=wrap;html=1;fillColor=#f8cecc;strokeColor=#b85450;" vertex="1" parent="1">
          <mxGeometry x="300" y="120" width="120" height="40" as="geometry" />
        </mxCell>
        <mxCell id="qe9h3ov9cfnc1Nharkd9-10" value="&lt;span style=&quot;color: light-dark(rgb(28, 113, 216), rgb(237, 237, 237));&quot;&gt;END&lt;/span&gt;" style="rounded=1;whiteSpace=wrap;html=1;fillColor=#dae8fc;strokeColor=#6c8ebf;" vertex="1" parent="1">
          <mxGeometry x="300" y="280" width="120" height="40" as="geometry" />
        </mxCell>
        <mxCell id="qe9h3ov9cfnc1Nharkd9-17" style="edgeStyle=orthogonalEdgeStyle;rounded=0;orthogonalLoop=1;jettySize=auto;html=1;entryX=0.5;entryY=0;entryDx=0;entryDy=0;dashed=1;exitX=0.5;exitY=1;exitDx=0;exitDy=0;" edge="1" parent="1" source="qe9h3ov9cfnc1Nharkd9-19" target="qe9h3ov9cfnc1Nharkd9-10">
          <mxGeometry relative="1" as="geometry">
            <mxPoint x="360" y="480" as="sourcePoint" />
          </mxGeometry>
        </mxCell>
        <mxCell id="qe9h3ov9cfnc1Nharkd9-19" value="&lt;span style=&quot;color: light-dark(rgb(192, 28, 40), rgb(237, 237, 237));&quot;&gt;Index_docs&lt;/span&gt;" style="rounded=1;whiteSpace=wrap;html=1;fillColor=#f8cecc;strokeColor=#b85450;" vertex="1" parent="1">
          <mxGeometry x="380" y="200" width="120" height="40" as="geometry" />
        </mxCell>
      </root>
    </mxGraphModel>
  </diagram>
</mxfile>
